<svg id="35c02c54-4fea-4821-95b4-cef07f2955a6" data-name="Ebene 1" xmlns="http://www.w3.org/2000/svg" width="65.326mm" height="17.338mm" viewBox="0 0 185.175 49.147"><title>fhs-logo-de</title><polygon points="27.243 3.707 43.344 0 47.05 16.079 30.973 19.808 27.243 3.707" style="fill:#c6c6c6"/><path d="M28.9,30.541h16.51V47.053H28.9V30.541Zm-28.9,0H16.51V47.053H0V30.541Zm0-28.9H16.51v16.51H0Z" style="fill:#0063a3"/><path d="M58.357,30.537H59.2V33.39h2.334V30.537h.842v6.694h-.842V34.119H59.2v3.112h-.843Z"/><path d="M64.725,34.784c0-1.23.357-1.864,1.127-1.864s1.126.634,1.126,1.864-.357,1.864-1.126,1.864S64.725,36.014,64.725,34.784Zm-.843,0c0,1.537.671,2.513,1.97,2.513s1.969-.976,1.969-2.513-.671-2.513-1.969-2.513S63.882,33.247,63.882,34.784Z"/><path d="M72.047,33.2a1.811,1.811,0,0,0-.931-.229c-.787,0-1.344.544-1.344,1.865,0,1.128.538,1.769,1.325,1.769a2.13,2.13,0,0,0,.988-.258l.039.74a2.9,2.9,0,0,1-1.027.212,2.166,2.166,0,0,1-2.168-2.463c0-1.579.824-2.559,2.187-2.559a2.4,2.4,0,0,1,.969.191Z"/><path d="M73.33,30.035h.808v2.981h.019a1.323,1.323,0,0,1,1.194-.743c.852,0,1.429.492,1.429,1.566v3.393h-.808V34.078c0-.776-.287-1.111-.8-1.111-.631,0-1.032.44-1.032,1.322v2.942H73.33Z"/><path d="M78.172,36.283a2.241,2.241,0,0,0,1.153.366c.614,0,.931-.317.931-.692,0-.336-.172-.566-.624-.769l-.537-.24c-.7-.317-.961-.634-.961-1.258a1.44,1.44,0,0,1,1.575-1.418,2.911,2.911,0,0,1,1.032.173l-.038.686a2.351,2.351,0,0,0-.956-.211c-.528,0-.806.288-.806.673s.288.615.825.826l.288.115a1.328,1.328,0,0,1,.963,1.249A1.4,1.4,0,0,1,79.45,37.3a2.963,2.963,0,0,1-1.326-.287Z"/><path d="M85.222,33.2a1.809,1.809,0,0,0-.93-.229c-.787,0-1.344.544-1.344,1.865,0,1.128.538,1.769,1.325,1.769a2.129,2.129,0,0,0,.988-.258l.039.74a2.9,2.9,0,0,1-1.027.212,2.166,2.166,0,0,1-2.167-2.463c0-1.579.824-2.559,2.187-2.559a2.4,2.4,0,0,1,.969.191Z"/><path d="M86.5,30.035h.808v2.981h.019a1.323,1.323,0,0,1,1.195-.743c.852,0,1.428.492,1.428,1.566v3.393h-.807V34.078c0-.776-.287-1.111-.8-1.111-.631,0-1.032.44-1.032,1.322v2.942H86.5Z"/><path d="M95,36.176c0,.355.029.71.039,1.056h-.779l-.027-.736h-.02a1.252,1.252,0,0,1-1.233.8c-.851,0-1.429-.491-1.429-1.566V32.337h.808v3.152c0,.776.287,1.111.8,1.111.629,0,1.032-.44,1.032-1.322V32.337H95Z"/><path d="M96.681,30.035h.808v7.2h-.808Z"/><path d="M99.752,34.413c.02-1.142.48-1.526,1-1.526.645,0,.963.509.963,1.526Zm2.77.614v-.432c0-1.439-.615-2.322-1.721-2.322-1.223,0-1.893.978-1.893,2.514s.67,2.51,1.969,2.51a3.317,3.317,0,0,0,1.375-.288l-.037-.728a2.1,2.1,0,0,1-1.125.4c-.9,0-1.338-.526-1.338-1.655Z"/><path d="M58.374,42.762H57.6v-.648h.777V41.019c0-.8.365-1.32,1.22-1.32a2.39,2.39,0,0,1,.634.081v.683a.778.778,0,0,0-.46-.115c-.452,0-.585.249-.585.739v1.027h.883v.648h-.883v4.247h-.808Z"/><path d="M61.71,40.152h.762v.956H61.71Zm1.524,0H64v.956h-.762Zm1.339,5.8c0,.355.029.71.038,1.056h-.778l-.029-.736h-.02a1.251,1.251,0,0,1-1.233.8c-.852,0-1.428-.492-1.428-1.565V42.114h.807v3.153c0,.776.287,1.112.8,1.112.631,0,1.033-.441,1.033-1.323V42.114h.807Z"/><path d="M66.171,43.169c0-.355-.028-.71-.038-1.056h.779l.028.765h.019a1.315,1.315,0,0,1,1.392-.829v.791a1.6,1.6,0,0,0-.307-.029c-.624,0-1.066.538-1.066,1.606v2.592h-.808Z"/><path d="M72.738,44.529l1.055-3.339h.018l1.026,3.339Zm.633-4.214-2.243,6.694h.843l.537-1.751h2.55l.536,1.751h.882l-2.186-6.694Z"/><path d="M77.562,43.169c0-.355-.028-.71-.039-1.056H78.3l.028.736h.019a1.252,1.252,0,0,1,1.233-.8c.852,0,1.428.492,1.428,1.566v3.392H80.2V43.856c0-.776-.287-1.112-.8-1.112-.632,0-1.033.441-1.033,1.323v2.942h-.808Z"/><path d="M83.174,44.562c0-1.23.337-1.864,1.08-1.864s1.079.634,1.079,1.864S85,46.425,84.254,46.425,83.174,45.791,83.174,44.562Zm2.966-1.554c0-.3.029-.605.039-.894H85.4l-.029.709h-.019a1.423,1.423,0,0,0-1.205-.773c-1.1,0-1.78.821-1.78,2.513s.682,2.512,1.694,2.512a1.438,1.438,0,0,0,1.291-.821h.019v.764a1.257,1.257,0,0,1-1.377,1.437,2.711,2.711,0,0,1-1.348-.425l-.039.819a4.668,4.668,0,0,0,1.435.3,1.887,1.887,0,0,0,2.1-1.929Z"/><path d="M88.246,44.189c.02-1.141.482-1.525,1-1.525.645,0,.962.508.962,1.525Zm2.77.614v-.432c0-1.439-.615-2.322-1.721-2.322-1.222,0-1.892.978-1.892,2.514s.67,2.508,1.969,2.508a3.314,3.314,0,0,0,1.375-.288l-.039-.728a2.092,2.092,0,0,1-1.124.4c-.9,0-1.338-.526-1.338-1.655Z"/><path d="M96.953,47.008h-.922L95,42.874h-.018l-.941,4.134h-.92l-1.3-4.894h.844L93.6,46.2h.02l.93-4.086h.961l.969,4.086h.02l.92-4.086h.807Z"/><path d="M101.7,45.226a1.157,1.157,0,0,1-1.148,1.233.762.762,0,0,1-.83-.852c0-.565.453-1.014,1.41-1.014a4.959,4.959,0,0,1,.568.019Zm-2.267-2.009a1.727,1.727,0,0,1,1.264-.518.991.991,0,0,1,.82.313,1.2,1.2,0,0,1,.184.784v.217h-.473c-1.689,0-2.312.706-2.312,1.653a1.3,1.3,0,0,0,1.414,1.408,1.49,1.49,0,0,0,1.381-.729h.02l.047.665h.723c-.018-.172-.037-.46-.037-.748V43.709a1.512,1.512,0,0,0-.42-1.2,1.853,1.853,0,0,0-1.307-.458,2.631,2.631,0,0,0-1.389.4Z"/><path d="M104.021,43.169c0-.355-.029-.71-.039-1.056h.779l.027.736h.019a1.255,1.255,0,0,1,1.234-.8c.852,0,1.428.492,1.428,1.566v3.392h-.809V43.856c0-.776-.285-1.112-.8-1.112-.633,0-1.033.441-1.033,1.323v2.942h-.807Z"/><path d="M111.79,44.562c0,1.23-.338,1.863-1.078,1.863s-1.08-.634-1.08-1.863.338-1.864,1.08-1.864S111.79,43.332,111.79,44.562Zm.809-4.75h-.809v2.972h-.019a1.353,1.353,0,0,0-1.252-.735c-1.012,0-1.693.821-1.693,2.513s.682,2.512,1.693,2.512a1.389,1.389,0,0,0,1.291-.783h.019l.029.718h.779c-.01-.3-.039-.6-.039-.9Z"/><path d="M116.261,46.95a2.264,2.264,0,0,1-.682.123c-.74,0-1.133-.3-1.133-1.158V42.762h-.777v-.648h.777v-1l.807-.24v1.238h1.008v.648h-1.008v2.895c0,.557.144.769.508.769a1.151,1.151,0,0,0,.5-.124Z"/><path d="M117.966,44.189c.02-1.141.482-1.525,1-1.525.642,0,.961.508.961,1.525Zm2.771.614v-.432c0-1.439-.615-2.322-1.723-2.322-1.221,0-1.891.978-1.891,2.514s.67,2.508,1.967,2.508a3.32,3.32,0,0,0,1.377-.288l-.039-.728a2.093,2.093,0,0,1-1.125.4c-.895,0-1.338-.526-1.338-1.655Z"/><path d="M123.748,40.315h.883l1.1,5.43h.018l1.2-5.43h1.074l1.2,5.43h.018l1.172-5.43h.807l-1.459,6.694h-1l-1.27-5.738h-.017L126.2,47.009h-1Z"/><path d="M132.392,42.114h.807v4.9h-.807Zm.842-2.01v.957h-.877V40.1Z"/><path d="M134.658,46.061a2.234,2.234,0,0,0,1.154.365c.611,0,.93-.316.93-.691,0-.336-.172-.567-.623-.769l-.537-.24c-.7-.317-.963-.634-.963-1.258a1.441,1.441,0,0,1,1.576-1.417,2.91,2.91,0,0,1,1.033.173l-.039.687a2.329,2.329,0,0,0-.955-.211c-.529,0-.807.288-.807.672s.287.615.826.827l.287.115a1.328,1.328,0,0,1,.963,1.25,1.4,1.4,0,0,1-1.568,1.513,2.966,2.966,0,0,1-1.326-.286Z"/><path d="M138.63,46.061a2.234,2.234,0,0,0,1.154.365c.613,0,.93-.316.93-.691,0-.336-.172-.567-.623-.769l-.539-.24c-.7-.317-.959-.634-.959-1.258a1.44,1.44,0,0,1,1.574-1.417,2.918,2.918,0,0,1,1.033.173l-.039.687a2.322,2.322,0,0,0-.955-.211c-.527,0-.807.288-.807.672s.287.615.824.827l.289.115a1.328,1.328,0,0,1,.963,1.25,1.4,1.4,0,0,1-1.568,1.513,2.952,2.952,0,0,1-1.324-.286Z"/><path d="M143.408,44.189c.018-1.141.481-1.525,1-1.525.644,0,.961.508.961,1.525Zm2.769.614v-.432c0-1.439-.615-2.322-1.723-2.322-1.221,0-1.891.978-1.891,2.514s.67,2.508,1.969,2.508a3.317,3.317,0,0,0,1.375-.288l-.039-.728a2.087,2.087,0,0,1-1.123.4c-.9,0-1.338-.526-1.338-1.655Z"/><path d="M147.492,43.169c0-.355-.029-.71-.039-1.056h.779l.027.736h.02a1.255,1.255,0,0,1,1.234-.8c.85,0,1.428.492,1.428,1.566v3.392h-.809V43.856c0-.776-.285-1.112-.8-1.112-.633,0-1.033.441-1.033,1.323v2.942h-.807Z"/><path d="M152.333,46.061a2.233,2.233,0,0,0,1.152.365c.615,0,.932-.316.932-.691,0-.336-.172-.567-.623-.769l-.539-.24c-.7-.317-.959-.634-.959-1.258a1.44,1.44,0,0,1,1.574-1.417,2.918,2.918,0,0,1,1.033.173l-.039.687a2.321,2.321,0,0,0-.955-.211c-.527,0-.807.288-.807.672s.287.615.824.827l.289.115a1.328,1.328,0,0,1,.963,1.25,1.4,1.4,0,0,1-1.566,1.513,2.955,2.955,0,0,1-1.326-.286Z"/><path d="M159.384,42.974a1.814,1.814,0,0,0-.93-.23c-.789,0-1.344.546-1.344,1.864,0,1.129.537,1.77,1.324,1.77a2.133,2.133,0,0,0,.988-.259l.037.74a2.886,2.886,0,0,1-1.025.212,2.166,2.166,0,0,1-2.168-2.463c0-1.577.824-2.558,2.187-2.558a2.394,2.394,0,0,1,.969.192Z"/><path d="M160.665,39.812h.809v2.98h.02a1.324,1.324,0,0,1,1.2-.742c.85,0,1.428.492,1.428,1.566v3.392h-.809V43.856c0-.776-.285-1.112-.8-1.112-.629,0-1.031.441-1.031,1.323v2.942h-.809Z"/><path d="M168.257,45.226a1.157,1.157,0,0,1-1.148,1.233.763.763,0,0,1-.83-.852c0-.565.453-1.014,1.41-1.014a4.959,4.959,0,0,1,.568.019Zm-2.268-2.009a1.727,1.727,0,0,1,1.264-.518.991.991,0,0,1,.82.313,1.188,1.188,0,0,1,.184.784v.217h-.473c-1.687,0-2.312.706-2.312,1.653a1.305,1.305,0,0,0,1.414,1.408,1.485,1.485,0,0,0,1.381-.729h.019l.047.665h.725a7.238,7.238,0,0,1-.039-.748V43.709a1.519,1.519,0,0,0-.418-1.2,1.864,1.864,0,0,0-1.309-.458,2.636,2.636,0,0,0-1.389.4Z"/><path d="M170.919,42.762h-.777v-.648h.777V41.019c0-.8.365-1.32,1.221-1.32a2.4,2.4,0,0,1,.635.081v.683a.784.784,0,0,0-.461-.115c-.451,0-.586.249-.586.739v1.027h.883v.648h-.883v4.247h-.809Z"/><path d="M175.826,46.95a2.276,2.276,0,0,1-.682.123c-.74,0-1.135-.3-1.135-1.158V42.762h-.777v-.648h.777v-1l.809-.24v1.238h1.008v.648h-1.008v2.895c0,.557.144.769.508.769a1.166,1.166,0,0,0,.5-.124Z"/><path d="M177.531,44.189c.017-1.141.48-1.525,1-1.525.644,0,.963.508.963,1.525Zm2.769.614v-.432c0-1.439-.615-2.322-1.721-2.322-1.221,0-1.893.978-1.893,2.514s.672,2.508,1.969,2.508a3.32,3.32,0,0,0,1.377-.288l-.039-.728a2.094,2.094,0,0,1-1.125.4c-.895,0-1.338-.526-1.338-1.655Z"/><path d="M181.615,43.169c0-.355-.029-.71-.039-1.056h.779l.029.736h.019a1.251,1.251,0,0,1,1.232-.8c.852,0,1.428.492,1.428,1.566v3.392h-.807V43.856c0-.776-.287-1.112-.8-1.112-.631,0-1.031.441-1.031,1.323v2.942h-.809Z"/><path d="M58.472,1.94h7.7V3.691H60.644V8.813H65.9v1.75H60.644v7.489H58.472Z" style="stroke:#000;stroke-width:0.5px"/><path d="M69.388,1.94h2.172V8.813h6.03V1.94h2.172V18.053H77.591V10.563h-6.03v7.489H69.388Z" style="stroke:#000;stroke-width:0.5px"/><path d="M91.065,4.268a6.118,6.118,0,0,0-2.943-.739,2.459,2.459,0,0,0-2.7,2.4c0,1.039.446,1.686,2.925,3.026,2.67,1.432,3.559,2.841,3.559,4.688,0,2.564-1.7,4.568-5.022,4.568a9.093,9.093,0,0,1-3.608-.691v-2.1a7.455,7.455,0,0,0,3.286,1.04c1.959,0,3.075-1.224,3.075-2.541,0-1.247-.347-1.963-2.678-3.28C83.841,8.888,83.15,7.9,83.15,5.816c0-2.655,2.17-4.038,4.8-4.038a9.322,9.322,0,0,1,3.117.529Z" style="stroke:#000;stroke-width:0.5px"/><path d="M108.749,4.268a6.116,6.116,0,0,0-2.943-.739,2.459,2.459,0,0,0-2.7,2.4c0,1.039.447,1.686,2.926,3.026,2.67,1.432,3.559,2.841,3.559,4.688,0,2.564-1.7,4.568-5.021,4.568a9.088,9.088,0,0,1-3.607-.691v-2.1a7.454,7.454,0,0,0,3.285,1.04c1.959,0,3.074-1.224,3.074-2.541,0-1.247-.348-1.963-2.678-3.28-3.115-1.755-3.807-2.748-3.807-4.827,0-2.655,2.172-4.038,4.8-4.038a9.326,9.326,0,0,1,3.117.529Z" style="stroke:#000;stroke-width:0.5px"/><path d="M118.16,17.917a6.222,6.222,0,0,1-1.754.3c-1.9,0-2.914-.709-2.914-2.782V7.841h-2V6.285h2v-2.4l2.076-.577V6.285h2.592V7.841h-2.592v6.966c0,1.342.369,1.851,1.309,1.851a3.159,3.159,0,0,0,1.283-.3Z" style="stroke:#000;stroke-width:0.5px"/><path d="M120.581,15.462h2.367V18.05h-2.367Z" style="stroke:#000;stroke-width:0.5px"/><path d="M137.287,17.385a14.423,14.423,0,0,1-4.273.829c-5.459,0-7.754-3.872-7.754-8.229,0-5.044,3.135-8.208,7.631-8.208a9.932,9.932,0,0,1,4.051.714V4.525a9.735,9.735,0,0,0-4.027-1c-2.816,0-5.385,2.107-5.385,6.042,0,4.149,1.777,6.893,5.533,6.893a5.471,5.471,0,0,0,2.15-.438V10.953h-2.891V9.2h4.965Z" style="stroke:#000;stroke-width:0.5px"/><path d="M147.611,13.768a2.865,2.865,0,0,1-2.955,2.959,1.892,1.892,0,0,1-2.135-2.044c0-1.356,1.168-2.435,3.625-2.435a13.587,13.587,0,0,1,1.465.046ZM141.779,8.91a4.636,4.636,0,0,1,3.25-1.231,2.668,2.668,0,0,1,2.111.744,2.766,2.766,0,0,1,.471,1.9v.534h-1.217c-4.344,0-5.949,1.687-5.949,3.961,0,2.255,1.557,3.392,3.641,3.392a3.889,3.889,0,0,0,3.551-1.761h.049l.123,1.6h1.877a16.707,16.707,0,0,1-.1-1.8V10.116a3.488,3.488,0,0,0-1.088-2.9,5.008,5.008,0,0,0-3.371-1.1,7.135,7.135,0,0,0-3.57.961Z" style="stroke:#000;stroke-width:0.5px"/><path d="M153.119,1.875h2.076V18.053h-2.076Z" style="stroke:#000;stroke-width:0.5px"/><path d="M159,1.875h2.074V18.053H159Z" style="stroke:#000;stroke-width:0.5px"/><path d="M166.2,11.248c.051-2.722,1.24-3.637,2.578-3.637,1.66,0,2.478,1.213,2.478,3.637Zm7.133,1.485V11.689c0-3.438-1.582-5.564-4.43-5.564-3.148,0-4.875,2.355-4.875,6.027,0,3.7,1.727,6.06,5.072,6.06a9.013,9.013,0,0,0,3.541-.7l-.1-1.759a5.624,5.624,0,0,1-2.9.97c-2.3,0-3.445-1.27-3.445-3.994Z" style="stroke:#000;stroke-width:0.5px"/><path d="M176.009,8.823c0-.854-.072-1.708-.1-2.538h2l.074,1.745h.049a3.275,3.275,0,0,1,3.2-1.907c2.207,0,3.689,1.171,3.689,3.755v8.175h-2.076v-7.6c0-1.87-.744-2.679-2.084-2.679-1.639,0-2.682,1.063-2.682,3.187v7.09h-2.074Z" style="stroke:#000;stroke-width:0.5px"/></svg>